<?xml version="1.0" encoding="UTF-8"?>
<svg width="250px" height="85px" viewBox="0 0 250 85" version="1.1" xmlns="http://www.w3.org/2000/svg" xmlns:xlink="http://www.w3.org/1999/xlink">
    <!-- Generator: Sketch 52.6 (67491) - http://www.bohemiancoding.com/sketch -->
    <title>Group 2</title>
    <desc>Created with Sketch.</desc>
    <g id="Page-1" stroke="none" stroke-width="1" fill="none" fill-rule="evenodd">
        <g id="Artboard" transform="translate(-569.000000, -129.000000)">
            <g id="Group-2" transform="translate(569.000000, 129.000000)">
                <rect id="Rectangle" fill="#FFFFFF" x="0" y="0" width="250" height="85"></rect>
                <g id="Group-3" transform="translate(11.000000, 5.000000)">
                    <g id="brain">
                        <path d="M42.1648889,74.7205584 C42.133,74.7205584 42.1018889,74.7205584 42.07,74.719797 C39.4648333,74.682868 37.1108889,73.1813452 35.0525,70.248731 C32.9937222,73.1809645 30.6401667,74.6824873 28.035,74.719797 C23.1400556,74.8016497 19.1963333,69.4713198 18.0580556,67.7615482 C15.8141667,67.2795685 14.1781111,66.2230964 13.1903333,64.6149746 C11.9423889,62.5846447 12.1103889,60.2128173 12.3666667,58.8418782 C6.18644444,55.6503807 5.56383333,49.1600254 6.21872222,45.3864213 C3.05433333,43.1303299 1.11766667,40.3534264 0.456944444,37.1211929 C-0.562333333,32.1338832 1.81144444,27.6590102 2.61605556,26.327665 C2.212,19.8692893 3.52255556,15.0007614 6.51466667,11.8545685 C8.86355556,9.38413706 11.6133889,8.68781726 13.0056111,8.49213198 C15.1262222,4.125 18.7300556,3.28248731 20.9183333,3.48769036 C27.2871667,-2.30177665 32.9167222,0.527284264 35.0517222,2.02043147 C37.1867222,0.526522843 42.8158889,-2.30177665 49.1847222,3.48769036 C51.373,3.28172589 54.9776111,4.12461929 57.0974444,8.49213198 C58.4900556,8.68781726 61.2395,9.38413706 63.5883889,11.8545685 C66.5805,15.0011421 67.8910556,19.8692893 67.487,26.327665 C68.2912222,27.6590102 70.6653889,32.1338832 69.6461111,37.1211929 C68.9857778,40.3538071 67.0491111,43.1307107 63.8843333,45.3864213 C64.5392222,49.1600254 63.9162222,55.6503807 57.7363889,58.8418782 C57.9926667,60.2128173 58.1606667,62.584264 56.9127222,64.6149746 C55.9245556,66.2230964 54.2885,67.2803299 52.0446111,67.7615482 C50.9164444,69.4595178 47.0232778,74.719797 42.1648889,74.7205584 Z M35.0272222,66.5032995 C35.5117778,66.5032995 36.0087778,66.761802 36.2417222,67.1782995 C38.0617222,70.4288071 40.0353333,72.0925127 42.1081111,72.1214467 C42.1267778,72.1214467 42.1458333,72.1214467 42.1645,72.1214467 C45.6197778,72.1214467 49.0486111,67.6629442 50.0826667,65.9352792 C50.2817778,65.6025381 50.6216667,65.3733503 51.0105556,65.3101523 C52.7574444,65.0261421 53.9766111,64.3454315 54.6330556,63.2847716 C55.8491111,61.3218274 54.9457222,58.5571066 54.9371667,58.5293147 C54.7228889,57.8885787 55.0433333,57.1895939 55.6764444,56.925 C63.2033889,53.7829949 61.2091667,45.4743655 61.1208889,45.1222081 C60.9867222,44.5895939 61.2083889,44.0288071 61.6750556,43.7257614 C65.8283889,41.0280457 67.6736667,37.5049492 67.1583889,33.2550761 C66.7582222,29.9558376 65.0486667,27.4020305 65.0311667,27.3769036 C64.8686111,27.1370558 64.7908333,26.8492386 64.8114444,26.5629442 C65.2427222,20.6741117 64.1907778,16.3347716 61.6847778,13.6640863 C59.2588889,11.080203 56.3126667,11.0139594 56.1886111,11.0124365 C55.6523333,11.0059645 55.1650556,10.684264 54.9655556,10.1977157 C52.9351667,5.25304569 49.1022778,6.12296954 49.0637778,6.13362944 C48.615,6.24327411 48.1370556,6.11497462 47.8068889,5.79365482 C45.101,3.15761421 42.3173333,2.14340102 39.5363889,2.78147208 C37.408,3.26878173 36.0235556,4.57423858 36.0095556,4.58718274 C35.7614444,4.82436548 35.4242778,4.96142132 35.0777778,4.96142132 L35.0272222,4.96142132 C34.6760556,4.96142132 34.3396667,4.82550761 34.0907778,4.58337563 C34.0814444,4.57423858 32.6962222,3.26878173 30.5678333,2.78147208 C27.7868889,2.14530457 25.0032222,3.15761421 22.2973333,5.79365482 C21.9675556,6.11459391 21.4907778,6.24137056 21.0404444,6.13362944 C20.6554444,6.04835025 17.1052778,5.40837563 15.1386667,10.1977157 C14.9368333,10.6895939 14.4491667,11.0124365 13.9074444,11.0124365 C13.7911667,11.0135787 10.8449444,11.0798223 8.41944444,13.6640863 C5.91344444,16.3340102 4.8615,20.673731 5.29277778,26.5629442 C5.31416667,26.8515228 5.23638889,27.1385787 5.07188889,27.3791878 C5.05672222,27.4024112 3.34638889,29.9554569 2.94622222,33.2546954 C2.43133333,37.5053299 4.27622222,41.027665 8.42955556,43.7253807 C8.89894444,44.0299492 9.12061111,44.590736 8.98294444,45.1248731 C8.89544444,45.4743655 6.90083333,53.7826142 14.4277778,56.925 C15.0643889,57.190736 15.3856111,57.8904822 15.1658889,58.5331218 C15.1581111,58.5563452 14.2551111,61.321066 15.4703889,63.2840102 C16.1268333,64.3442893 17.346,65.0261421 19.0928889,65.3093909 C19.4806111,65.3725888 19.8208889,65.6017766 20.02,65.9329949 C21.0661111,67.6717005 24.5373333,72.1458122 27.9992222,72.1199239 C30.0708333,72.0887056 32.0425,70.4253807 33.8617222,67.1767766 C34.0962222,66.761802 34.5422778,66.5032995 35.0272222,66.5032995 Z" id="Shape" fill="#602F75" fill-rule="nonzero"></path>
                        <path d="M48.6923889,18.1850254 C48.6923889,18.1850254 48.6923889,12.1340102 56.1466111,9.71345178" id="Path" fill="#FFFFFF"></path>
                        <path d="M48.6931667,19.4798223 C48.6896667,19.4798223 48.6865556,19.4798223 48.6830556,19.4798223 C47.9535,19.4744924 47.3651111,18.8988579 47.3651111,18.1850254 C47.3651111,17.8998731 47.46,11.1651015 55.7289444,8.48032995 C56.4219444,8.25494924 57.176,8.62309645 57.4066111,9.30494924 C57.6376111,9.98604061 57.2607778,10.7215736 56.5642778,10.947335 C50.1666667,13.0244924 50.0227778,17.9840102 50.0200556,18.1937817 C50.0099444,18.9049492 49.4176667,19.4798223 48.6931667,19.4798223 Z" id="Path" fill="#602F75"></path>
                        <path d="M49.9348889,41.1788071 C49.9348889,41.1788071 53.7370556,51.2097716 62.3579444,44.8096447" id="Path" fill="#FFFFFF"></path>
                        <path d="M56.9434444,48.2459391 C56.2737778,48.2459391 55.6161667,48.1541878 54.9717778,47.9703046 C50.673,46.744797 48.7693889,41.8378173 48.6904444,41.6299492 C48.4357222,40.9568528 48.7861111,40.2091371 49.4728889,39.9593909 C50.1604444,39.7111675 50.9230556,40.0522843 51.1785556,40.7234772 C51.2085,40.8007614 52.7255556,44.6303299 55.7235,45.4770305 C57.4225556,45.957868 59.3852778,45.3841371 61.5552778,43.7725888 C62.1401667,43.3385787 62.9723889,43.4516497 63.4149444,44.0227157 C63.8575,44.5945431 63.7435556,45.4100254 63.1594444,45.8432741 C61.0073333,47.4430203 58.9240556,48.2459391 56.9434444,48.2459391 Z" id="Path" fill="#602F75"></path>
                        <path d="M43.7231667,55.7013959 C43.7231667,55.7013959 44.9656667,50.8606599 39.9964444,46.0203046" id="Path" fill="#FFFFFF"></path>
                        <g id="Group" transform="translate(33.444444, 2.284264)" fill="#602F75">
                            <path d="M10.2798889,54.7164975 C10.1729444,54.7164975 10.0640556,54.7035533 9.95516667,54.6769036 C9.247,54.5029188 8.81611111,53.8016497 8.98877778,53.1076142 C9.03466667,52.9134518 9.92716667,48.8569797 5.61516667,44.6558376 C5.09561111,44.1494924 5.09366667,43.3263959 5.6105,42.8177665 C6.12772222,42.3095178 6.96772222,42.3072335 7.48727778,42.813198 C12.929,48.1145939 11.6235,53.5062183 11.5655556,53.7327411 C11.4150556,54.3232234 10.8741111,54.7164975 10.2798889,54.7164975 Z" id="Path"></path>
                            <path d="M22.5298889,33.1111675 C19.8663889,33.1111675 16.6355,32.3569797 14.3192778,29.3543147 C12.3421667,26.7909898 11.4811667,24.5668782 10.8519444,22.9427665 C10.1239444,21.0616751 9.91394444,20.748731 9.35588889,20.7030457 C8.62516667,20.6444162 8.0815,20.0170051 8.14138889,19.3016497 C8.20127778,18.5862944 8.85305556,18.0491117 9.5725,18.1126904 C11.8941667,18.2992386 12.5937778,20.1068528 13.3342222,22.0214467 C13.9381667,23.5808376 14.6895,25.5217005 16.4375556,27.7880711 C19.8065,32.1548223 26.1496667,29.9939086 26.4191667,29.8998731 C27.1075,29.6596447 27.8681667,30.0083756 28.1170556,30.6814721 C28.3659444,31.3560914 28.0116667,32.0984772 27.3233333,32.3436548 C27.1545556,32.4041878 25.1086111,33.1111675 22.5298889,33.1111675 Z" id="Path"></path>
                            <path d="M1.58277778,66.8181472 C0.850111111,66.8181472 0.2555,66.2360406 0.2555,65.5187817 L0.2555,1.37893401 C0.2555,0.661675127 0.850111111,0.0795685279 1.58277778,0.0795685279 C2.31544444,0.0795685279 2.91005556,0.661675127 2.91005556,1.37893401 L2.91005556,65.5187817 C2.91044444,66.2356599 2.31544444,66.8181472 1.58277778,66.8181472 Z" id="Path"></path>
                        </g>
                        <path d="M43.4178889,13.5445431 C43.4178889,13.5445431 43.5458333,22.1010152 39.0607778,27.6422589" id="Path" fill="#FFFFFF"></path>
                        <path d="M39.06,28.9412437 C38.7714444,28.9412437 38.4805556,28.8494924 38.2363333,28.6598985 C37.6615556,28.2140863 37.5655,27.3967005 38.0205,26.8340102 C42.1493333,21.732868 42.0917778,13.6427665 42.0902222,13.5616751 C42.0808889,12.8444162 42.6669444,12.2550761 43.3996111,12.2451777 C44.1245,12.2607868 44.7342778,12.807868 44.7447778,13.5251269 C44.7502222,13.8936548 44.8252778,22.6119289 40.1002778,28.4486041 C39.8393333,28.7725888 39.4516111,28.9412437 39.06,28.9412437 Z" id="Path" fill="#602F75"></path>
                        <path d="M39.9964444,61.7516497 C39.9964444,61.7516497 42.4814444,54.490736 47.4506667,54.490736" id="Path" fill="#FFFFFF"></path>
                        <path d="M39.9964444,63.0517766 C39.8564444,63.0517766 39.7145,63.0296954 39.5745,62.9840102 C38.8795556,62.7559645 38.5046667,62.0196701 38.7376111,61.3389594 C38.8511667,61.0062183 41.5928333,53.1909898 47.4498889,53.1909898 C48.1825556,53.1909898 48.7771667,53.7730964 48.7771667,54.4903553 C48.7771667,55.2076142 48.1825556,55.7897208 47.4498889,55.7897208 C43.5454444,55.7897208 41.2762778,62.1 41.2548889,62.1643401 C41.069,62.7079949 40.5513889,63.0517766 39.9964444,63.0517766 Z" id="Path" fill="#602F75"></path>
                        <g id="Group" transform="translate(14.777778, 2.664975)" fill="#602F75">
                            <path d="M30.1871111,7.13832487 C29.9102222,7.13832487 29.6317778,7.05456853 29.3933889,6.87982234 C28.8061667,6.44961929 28.6863889,5.6356599 29.1250556,5.06116751 L32.3147222,0.886675127 C32.7541667,0.311040609 33.5863889,0.194162437 34.1724444,0.624365482 C34.7596667,1.05456853 34.8794444,1.86852792 34.4407778,2.4430203 L31.2511111,6.61751269 C30.9901667,6.95824873 30.5907778,7.13832487 30.1871111,7.13832487 Z" id="Path"></path>
                            <path d="M6.95294444,32.310533 C6.22027778,32.310533 5.62566667,31.7284264 5.62566667,31.0111675 L5.62566667,18.060533 C5.62566667,17.3432741 6.22027778,16.7611675 6.95294444,16.7611675 C7.68561111,16.7611675 8.28022222,17.3432741 8.28022222,18.060533 L8.28022222,31.0111675 C8.28022222,31.7291878 7.68638889,32.310533 6.95294444,32.310533 Z" id="Path"></path>
                            <path d="M10.9417778,32.310533 L1.63605556,32.310533 C0.903388889,32.310533 0.308777778,31.7284264 0.308777778,31.0111675 C0.308777778,30.2939086 0.903388889,29.711802 1.63605556,29.711802 L10.9417778,29.711802 C11.6744444,29.711802 12.2690556,30.2939086 12.2690556,31.0111675 C12.2690556,31.7284264 11.6744444,32.310533 10.9417778,32.310533 Z" id="Path"></path>
                            <path d="M10.9417778,40.0808376 C10.2091111,40.0808376 9.6145,39.498731 9.6145,38.7814721 L9.6145,31.0111675 C9.6145,30.2939086 10.2091111,29.711802 10.9417778,29.711802 C11.6744444,29.711802 12.2690556,30.2939086 12.2690556,31.0111675 L12.2690556,38.7814721 C12.2690556,39.4994924 11.6744444,40.0808376 10.9417778,40.0808376 Z" id="Path"></path>
                            <path d="M10.9417778,54.3266497 C10.2091111,54.3266497 9.6145,53.7445431 9.6145,53.0272843 L9.6145,46.5517766 C9.6145,45.8345178 10.2091111,45.2524112 10.9417778,45.2524112 C11.6744444,45.2524112 12.2690556,45.8345178 12.2690556,46.5517766 L12.2690556,53.0272843 C12.2690556,53.7453046 11.6744444,54.3266497 10.9417778,54.3266497 Z" id="Path"></path>
                        </g>
                        <g id="Group" transform="translate(7.000000, 11.421320)" fill="#00E7FF">
                            <ellipse id="Oval" cx="14.7318889" cy="5.41979695" rx="3.98883333" ry="3.88553299"></ellipse>
                            <path d="M14.7307222,10.6035533 C11.7992778,10.6035533 9.415,8.27741117 9.415,5.41941624 C9.415,2.56142132 11.7996667,0.235279188 14.7307222,0.235279188 C17.6617778,0.235279188 20.0464444,2.56142132 20.0464444,5.41941624 C20.0464444,8.27741117 17.6621667,10.6035533 14.7307222,10.6035533 Z M14.7307222,2.83324873 C13.2634444,2.83324873 12.0699444,3.9928934 12.0699444,5.41865482 C12.0699444,6.84403553 13.2634444,8.00406091 14.7307222,8.00406091 C16.198,8.00406091 17.3915,6.84441624 17.3915,5.41865482 C17.3915,3.9928934 16.198,2.83324873 14.7307222,2.83324873 Z" id="Shape" fill-rule="nonzero"></path>
                            <ellipse id="Oval" cx="5.42694444" cy="22.2548223" rx="3.98883333" ry="3.88553299"></ellipse>
                            <path d="M5.425,27.4397208 C2.49355556,27.4397208 0.109277778,25.1135787 0.109277778,22.255203 C0.109277778,19.3968274 2.49394444,17.071066 5.425,17.071066 C8.35605556,17.071066 10.7407222,19.3972081 10.7407222,22.2555838 C10.7407222,25.1139594 8.35566667,27.4397208 5.425,27.4397208 Z M5.425,19.6694162 C3.95772222,19.6694162 2.76422222,20.8290609 2.76422222,22.2548223 C2.76422222,23.680203 3.95772222,24.8402284 5.425,24.8402284 C6.89227778,24.8402284 8.08577778,23.6805838 8.08577778,22.2548223 C8.08577778,20.8294416 6.89227778,19.6694162 5.425,19.6694162 Z" id="Shape" fill-rule="nonzero"></path>
                            <ellipse id="Oval" cx="18.7207222" cy="33.9114213" rx="3.98883333" ry="3.88553299"></ellipse>
                            <path d="M18.7195556,39.094797 C15.7881111,39.094797 13.4038333,36.7686548 13.4038333,33.9102792 C13.4038333,31.0515228 15.7885,28.7253807 18.7195556,28.7253807 C21.6506111,28.7253807 24.0352778,31.0515228 24.0352778,33.9102792 C24.0352778,36.7694162 21.6506111,39.094797 18.7195556,39.094797 Z M18.7195556,31.3244924 C17.2522778,31.3244924 16.0587778,32.4848985 16.0587778,33.9106599 C16.0587778,35.3360406 17.2522778,36.496066 18.7195556,36.496066 C20.1868333,36.496066 21.3803333,35.3364213 21.3803333,33.9106599 C21.3803333,32.4848985 20.1864444,31.3244924 18.7195556,31.3244924 Z" id="Shape" fill-rule="nonzero"></path>
                        </g>
                        <g id="Group" transform="translate(40.055556, 16.751269)" fill="#EA3457">
                            <ellipse id="Oval" cx="17.5696111" cy="2.68248731" rx="2.66155556" ry="2.58997462"></ellipse>
                            <ellipse id="Oval" cx="2.94816667" cy="19.5175127" rx="2.66155556" ry="2.58997462"></ellipse>
                        </g>
                        <g id="Group" transform="translate(40.055556, 37.309645)" fill="#FFE600">
                            <ellipse id="Oval" cx="18.8968889" cy="2.84428934" rx="2.66155556" ry="2.58997462"></ellipse>
                            <ellipse id="Oval" cx="2.94816667" cy="30.0361675" rx="2.66155556" ry="2.58997462"></ellipse>
                        </g>
                        <ellipse id="Oval" fill="#EA3457" cx="49.6475" cy="60.8744924" rx="2.66155556" ry="2.58997462"></ellipse>
                        <g id="Group" transform="translate(20.222222, 54.060914)" fill="#00E7FF">
                            <ellipse id="Oval" cx="5.4985" cy="5.5142132" rx="3.98883333" ry="3.88553299"></ellipse>
                            <path d="M5.49733333,10.7017766 C2.56588889,10.7017766 0.181611111,8.37563452 0.181611111,5.51687817 C0.181611111,2.65812183 2.56627778,0.332360406 5.49733333,0.332360406 C8.42838889,0.332360406 10.8130556,2.65850254 10.8130556,5.51687817 C10.8130556,8.37563452 8.42838889,10.7017766 5.49733333,10.7017766 Z M5.49733333,2.93071066 C4.03005556,2.93071066 2.83655556,4.09035533 2.83655556,5.51611675 C2.83655556,6.94187817 4.03005556,8.10228426 5.49733333,8.10228426 C6.96461111,8.10228426 8.15811111,6.94187817 8.15811111,5.51611675 C8.15811111,4.09035533 6.96422222,2.93071066 5.49733333,2.93071066 Z" id="Shape" fill-rule="nonzero"></path>
                        </g>
                    </g>
                    <text id="Axiom" font-family="Montserrat-SemiBold, Montserrat" font-size="42" font-weight="500" fill="#602F75">
                        <tspan x="90" y="53">Axiom</tspan>
                    </text>
                </g>
            </g>
        </g>
    </g>
</svg>